<svg width="50" height="50" viewBox="0 0 50 50" fill="none" xmlns="http://www.w3.org/2000/svg">
<path d="M20.8333 37.5C24.6792 37.5 28.2146 36.1771 31.0354 33.9834L40.1938 43.1417L43.1396 40.1959L33.9813 31.0375C36.1771 28.2146 37.5 24.6792 37.5 20.8334C37.5 11.6438 30.0229 4.16669 20.8333 4.16669C11.6438 4.16669 4.16667 11.6438 4.16667 20.8334C4.16667 30.0229 11.6438 37.5 20.8333 37.5ZM20.8333 8.33335C27.7271 8.33335 33.3333 13.9396 33.3333 20.8334C33.3333 27.7271 27.7271 33.3334 20.8333 33.3334C13.9396 33.3334 8.33334 27.7271 8.33334 20.8334C8.33334 13.9396 13.9396 8.33335 20.8333 8.33335Z" fill="#767070"/>
<path d="M23.775 17.8875C24.5646 18.6792 25 19.725 25 20.8333H29.1667C29.1667 18.6146 28.3 16.5229 26.7208 14.9417C23.5667 11.7917 18.0979 11.7917 14.9458 14.9417L17.8875 17.8917C19.4708 16.3125 22.2 16.3167 23.775 17.8875Z" fill="#767070"/>
</svg>
