<svg width="24" height="24" viewBox="0 0 24 24" fill="none" xmlns="http://www.w3.org/2000/svg">
<path d="M4.983 7.19698C6.1914 7.19698 7.171 6.21738 7.171 5.00898C7.171 3.80058 6.1914 2.82098 4.983 2.82098C3.7746 2.82098 2.795 3.80058 2.795 5.00898C2.795 6.21738 3.7746 7.19698 4.983 7.19698Z" fill="#767070"/>
<path d="M9.237 8.85499V20.994H13.006V14.991C13.006 13.407 13.304 11.873 15.268 11.873C17.205 11.873 17.229 13.684 17.229 15.091V20.995H21V14.338C21 11.068 20.296 8.55499 16.474 8.55499C14.639 8.55499 13.409 9.56199 12.906 10.515H12.855V8.85499H9.237ZM3.095 8.85499H6.87V20.994H3.095V8.85499Z" fill="#767070"/>
</svg>
