<svg width="24" height="24" viewBox="0 0 24 24" fill="none" xmlns="http://www.w3.org/2000/svg">
<path d="M11.999 7.37701C9.445 7.37701 7.376 9.44701 7.376 12C7.376 14.554 9.445 16.624 11.999 16.624C14.551 16.624 16.622 14.554 16.622 12C16.622 9.44701 14.551 7.37701 11.999 7.37701ZM11.999 15.004C10.34 15.004 8.995 13.659 8.995 12.001C8.995 10.342 10.34 8.99801 11.999 8.99801C13.658 8.99801 15.001 10.342 15.001 12.001C15.001 13.659 13.658 15.004 11.999 15.004Z" fill="#767070"/>
<path d="M16.806 8.28503C17.4014 8.28503 17.884 7.80239 17.884 7.20703C17.884 6.61166 17.4014 6.12903 16.806 6.12903C16.2106 6.12903 15.728 6.61166 15.728 7.20703C15.728 7.80239 16.2106 8.28503 16.806 8.28503Z" fill="#767070"/>
<path d="M20.533 6.111C20.064 4.902 19.109 3.946 17.9 3.479C17.201 3.216 16.462 3.075 15.714 3.059C14.751 3.017 14.446 3.005 12.004 3.005C9.562 3.005 9.249 3.005 8.294 3.059C7.548 3.074 6.809 3.215 6.11 3.479C4.9 3.946 3.945 4.902 3.477 6.111C3.214 6.811 3.073 7.549 3.058 8.297C3.015 9.259 3.002 9.564 3.002 12.007C3.002 14.449 3.002 14.76 3.058 15.717C3.073 16.465 3.214 17.203 3.477 17.904C3.946 19.112 4.901 20.068 6.111 20.536C6.807 20.808 7.546 20.962 8.296 20.986C9.259 21.028 9.564 21.041 12.006 21.041C14.448 21.041 14.761 21.041 15.716 20.986C16.463 20.971 17.202 20.829 17.902 20.567C19.111 20.098 20.066 19.143 20.535 17.934C20.798 17.234 20.939 16.496 20.954 15.748C20.997 14.786 21.01 14.481 21.01 12.038C21.01 9.59501 21.01 9.285 20.954 8.328C20.941 7.57 20.801 6.819 20.533 6.111ZM19.315 15.643C19.308 16.219 19.204 16.79 19.004 17.331C18.699 18.118 18.078 18.74 17.292 19.042C16.757 19.241 16.193 19.345 15.622 19.353C14.672 19.397 14.404 19.408 11.968 19.408C9.53 19.408 9.281 19.408 8.313 19.353C7.744 19.346 7.178 19.241 6.644 19.042C5.855 18.741 5.23 18.119 4.925 17.331C4.729 16.797 4.623 16.232 4.614 15.662C4.571 14.712 4.561 14.444 4.561 12.008C4.561 9.571 4.561 9.322 4.614 8.353C4.621 7.777 4.725 7.207 4.925 6.666C5.23 5.877 5.855 5.256 6.644 4.954C7.178 4.756 7.744 4.651 8.313 4.643C9.264 4.6 9.531 4.588 11.968 4.588C14.405 4.588 14.655 4.588 15.622 4.643C16.193 4.65 16.757 4.755 17.292 4.954C18.078 5.257 18.699 5.879 19.004 6.666C19.2 7.2 19.306 7.765 19.315 8.335C19.358 9.28601 19.369 9.553 19.369 11.99C19.369 14.426 19.369 14.688 19.326 15.644H19.315V15.643Z" fill="#767070"/>
</svg>
