<svg width="24" height="24" viewBox="0 0 24 24" fill="none" xmlns="http://www.w3.org/2000/svg">
<path fill-rule="evenodd" clip-rule="evenodd" d="M20.0037 4.04125C17.885 1.92 15.0675 0.75125 12.0663 0.75C5.88125 0.75 0.84625 5.78375 0.84375 11.9713C0.84375 13.9488 1.36 15.8787 2.34125 17.5812L0.75 23.395L6.69875 21.8338C8.33875 22.7275 10.1838 23.1987 12.0612 23.2H12.0663C18.25 23.2 23.285 18.1663 23.2875 11.9788C23.2875 8.98125 22.1225 6.1625 20.0037 4.04125ZM12.0663 21.3062H12.0625C10.3888 21.305 8.7475 20.8562 7.315 20.005L6.975 19.8025L3.445 20.7288L4.38625 17.2875L4.165 16.935C3.23125 15.45 2.73875 13.7338 2.73875 11.9713C2.74125 6.82875 6.925 2.645 12.07 2.645C14.5612 2.64625 16.9025 3.6175 18.6637 5.38C20.4237 7.14375 21.3937 9.48625 21.3925 11.9788C21.39 17.1213 17.2063 21.3062 12.0663 21.3062ZM17.1825 14.32C16.9013 14.1788 15.5238 13.5013 15.2662 13.4075C15.01 13.3138 14.8238 13.2675 14.6363 13.5475C14.4488 13.8275 13.9113 14.4587 13.7475 14.6462C13.5837 14.8337 13.42 14.8563 13.14 14.7163C12.86 14.5763 11.9563 14.28 10.885 13.325C10.0512 12.5813 9.48875 11.6637 9.325 11.3825C9.16125 11.1012 9.3075 10.95 9.44875 10.81C9.575 10.685 9.72875 10.4825 9.86875 10.3187C10.0087 10.155 10.055 10.0388 10.1488 9.85125C10.2425 9.66375 10.1962 9.5 10.125 9.36C10.055 9.21875 9.49375 7.83875 9.26 7.2775C9.03375 6.73375 8.8025 6.80625 8.63 6.79875C8.4675 6.79125 8.28 6.78875 8.09375 6.78875C7.90625 6.78875 7.6025 6.85875 7.345 7.13875C7.0875 7.42 6.36375 8.0975 6.36375 9.4775C6.36375 10.8575 7.36875 12.1913 7.50875 12.3788C7.64875 12.5663 9.48625 15.3975 12.2987 16.6125C12.9688 16.9012 13.4913 17.0737 13.8975 17.2038C14.5687 17.4175 15.18 17.3863 15.6637 17.315C16.2025 17.235 17.3225 16.6375 17.5562 15.9825C17.79 15.3275 17.79 14.7663 17.72 14.6488C17.65 14.5313 17.4613 14.46 17.1825 14.32Z" fill="#767070"/>
</svg>
